<?xml version="1.0" encoding="UTF-8" standalone="no"?>
<!DOCTYPE svg PUBLIC "-//W3C//DTD SVG 1.1//EN" "http://www.w3.org/Graphics/SVG/1.1/DTD/svg11.dtd">
<svg width="100%" height="100%" viewBox="0 0 365 111" version="1.1" xmlns="http://www.w3.org/2000/svg" xmlns:xlink="http://www.w3.org/1999/xlink" xml:space="preserve" xmlns:serif="http://www.serif.com/" style="fillRule:evenodd;clip-rule:evenodd;stroke-linejoin:round;stroke-miterlimit:2;">
    <g transform="matrix(0.124765,0,0,0.124765,159.73,48.5755)">
        <g transform="matrix(8.33333,0,0,8.33333,-188.325,313.985)">
            <path d="M0,-9.32C0.081,-9.127 0.171,-8.916 0.271,-8.682C0.402,-8.334 0.511,-8.074 0.573,-7.955L2.796,-2.6L-2.778,-2.6L0,-9.32ZM2.485,-15.755L-2.406,-15.755L-12.295,6.435L-6.727,6.435L-4.797,2.165L4.818,2.165L6.746,6.435L12.375,6.435L2.485,-15.755Z" style="fill:rgb(25,41,81);fillRule:nonzero;"/>
        </g>
        <g transform="matrix(8.33333,0,0,8.33333,87.5208,367.605)">
            <path d="M0,-22.189L0,-9.152L-9.516,-22.189L-14.091,-22.189L-14.091,0L-8.975,0L-8.975,-13.039C-8.968,-13.03 -8.961,-13.021 -8.954,-13.012L0.543,0L5.116,0L5.116,-22.189L0,-22.189Z" style="fill:rgb(25,41,81);fillRule:nonzero;"/>
        </g>
        <g transform="matrix(8.33333,0,0,8.33333,287.952,313.985)">
            <path d="M0,-9.32C0.08,-9.127 0.17,-8.916 0.271,-8.682C0.401,-8.334 0.511,-8.074 0.573,-7.955L2.796,-2.6L-2.778,-2.6L0,-9.32ZM2.484,-15.755L-2.407,-15.755L-12.297,6.435L-6.727,6.435L-4.798,2.165L4.817,2.165L6.746,6.435L12.374,6.435L2.484,-15.755Z" style="fill:rgb(25,41,81);fillRule:nonzero;"/>
        </g>
        <g transform="matrix(8.33333,0,0,8.33333,489.011,222.913)">
            <path d="M0,12.537L0,-4.826L-5.116,-4.826L-5.116,17.363L10.787,17.363L10.787,12.537L0,12.537Z" style="fill:rgb(25,41,81);fillRule:nonzero;"/>
        </g>
        <g transform="matrix(8.33333,0,0,8.33333,723.369,367.605)">
            <path d="M0,-22.189L-4.396,-14.977C-4.65,-14.575 -4.876,-14.211 -5.071,-13.881C-5.245,-14.187 -5.447,-14.537 -5.677,-14.932L-10.051,-22.189L-16.154,-22.189L-7.658,-9.03L-7.658,0L-2.543,0L-2.543,-9.08L6.187,-22.189L0,-22.189Z" style="fill:rgb(25,41,81);fillRule:nonzero;"/>
        </g>
        <g transform="matrix(8.33333,0,0,8.33333,809.607,367.605)">
            <path d="M0,-22.189L0,-17.423L6.578,-17.423L6.578,0L11.723,0L11.723,-17.423L18.301,-17.423L18.301,-22.189L0,-22.189Z" style="fill:rgb(25,41,81);fillRule:nonzero;"/>
        </g>
        <g transform="matrix(8.33333,0,0,8.33333,-7469.73,-4331.72)">
            <rect x="1019.16" y="541.731" width="5.116" height="22.189" style="fill:rgb(25,41,81);"/>
        </g>
        <g transform="matrix(8.33333,0,0,8.33333,1279.59,241.585)">
            <path d="M0,8.055L-0.687,8.679C-1.421,9.344 -2.202,9.834 -3.011,10.132C-4.892,10.831 -7.349,10.732 -9.064,9.753C-10.044,9.196 -10.788,8.437 -11.338,7.437C-11.888,6.445 -12.166,5.277 -12.166,3.97C-12.166,2.68 -11.892,1.526 -11.353,0.54C-10.811,-0.448 -10.083,-1.187 -9.126,-1.726C-7.483,-2.651 -5.097,-2.815 -3.207,-2.058C-2.406,-1.735 -1.617,-1.223 -0.863,-0.538L-0.175,0.087L2.875,-3.814L2.29,-4.353C1.196,-5.362 -0.04,-6.141 -1.383,-6.669C-2.734,-7.206 -4.194,-7.477 -5.721,-7.477C-7.942,-7.477 -9.966,-6.983 -11.733,-6.011C-13.514,-5.032 -14.921,-3.642 -15.914,-1.876C-16.899,-0.127 -17.398,1.879 -17.398,4.086C-17.398,6.276 -16.904,8.262 -15.929,9.991C-14.946,11.734 -13.55,13.11 -11.776,14.081C-10.018,15.044 -7.989,15.532 -5.748,15.532C-2.418,15.532 0.35,14.507 2.475,12.486L3.042,11.947L0,8.055Z" style="fill:rgb(25,41,81);fillRule:nonzero;"/>
        </g>
        <g transform="matrix(8.33333,0,0,8.33333,1485.28,277.004)">
            <path d="M0,-0.678C-1.274,-1.801 -3.229,-2.563 -5.963,-3.003C-7.917,-3.344 -8.83,-3.712 -9.255,-3.964C-9.705,-4.229 -9.896,-4.543 -9.896,-5.017C-9.896,-5.565 -9.652,-5.97 -9.104,-6.326C-7.935,-7.088 -5.937,-7.146 -4.094,-6.587C-3.289,-6.347 -2.56,-5.981 -1.925,-5.5L-1.209,-4.957L1.507,-8.866L0.834,-9.365C-0.293,-10.201 -1.484,-10.809 -2.705,-11.18C-5.237,-11.939 -8.469,-11.959 -10.86,-10.892C-12.137,-10.326 -13.16,-9.518 -13.901,-8.487C-14.657,-7.436 -15.041,-6.21 -15.041,-4.842C-15.041,-2.989 -14.335,-1.498 -12.944,-0.409C-11.628,0.624 -9.717,1.301 -7.105,1.653C-5.181,1.918 -4.285,2.334 -3.871,2.637C-3.375,3.001 -3.144,3.447 -3.144,4.045C-3.144,4.752 -3.43,5.28 -4.039,5.702C-5.385,6.623 -7.812,6.632 -9.866,5.895C-10.866,5.534 -11.79,5.042 -12.613,4.434L-13.361,3.881L-15.895,7.903L-15.32,8.386C-14.253,9.289 -12.966,10.006 -11.497,10.513C-10.04,11.023 -8.465,11.281 -6.812,11.281C-5.144,11.281 -3.633,10.998 -2.322,10.437C-0.965,9.857 0.105,8.999 0.858,7.892C1.618,6.776 2.002,5.462 2.002,3.987C2.002,2.06 1.328,0.49 0,-0.678" style="fill:rgb(25,41,81);fillRule:nonzero;"/>
        </g>
        <g transform="matrix(8.33333,0,0,8.33333,1581.1,338.647)">
            <path d="M0,-0.406C0.135,-0.522 0.203,-0.687 0.203,-0.9C0.203,-1.112 0.135,-1.281 0,-1.407C-0.136,-1.533 -0.329,-1.596 -0.581,-1.596L-1.597,-1.596L-1.597,-0.232L-0.581,-0.232C-0.329,-0.232 -0.136,-0.29 0,-0.406M0.711,-0.116C0.546,0.116 0.328,0.281 0.058,0.377L0.957,1.8L0.087,1.8L-0.726,0.493L-1.597,0.493L-1.597,1.8L-2.322,1.8L-2.322,-2.322L-0.552,-2.322C-0.106,-2.322 0.256,-2.186 0.537,-1.915C0.816,-1.644 0.957,-1.306 0.957,-0.9C0.957,-0.609 0.875,-0.348 0.711,-0.116M1.437,2.032C2.007,1.471 2.293,0.726 2.293,-0.203C2.293,-1.151 2.007,-1.905 1.437,-2.467C0.865,-3.028 0.105,-3.308 -0.842,-3.308C-1.771,-3.308 -2.521,-3.023 -3.091,-2.452C-3.662,-1.881 -3.947,-1.132 -3.947,-0.203C-3.947,0.726 -3.662,1.471 -3.091,2.032C-2.521,2.594 -1.771,2.873 -0.842,2.873C0.105,2.873 0.865,2.594 1.437,2.032M2.046,-3.047C2.79,-2.312 3.163,-1.364 3.163,-0.203C3.163,0.958 2.79,1.906 2.046,2.641C1.301,3.377 0.338,3.744 -0.842,3.744C-2.022,3.744 -2.98,3.381 -3.715,2.656C-4.451,1.93 -4.818,0.978 -4.818,-0.203C-4.818,-1.383 -4.451,-2.336 -3.715,-3.062C-2.98,-3.787 -2.022,-4.15 -0.842,-4.15C0.338,-4.15 1.301,-3.782 2.046,-3.047" style="fill:rgb(25,41,81);fillRule:nonzero;"/>
        </g>
        <g transform="matrix(8.33333,0,0,8.33333,-137.348,-209.732)">
            <path d="M0,24.525C-6.712,24.525 -12.097,19.886 -12.097,12.097C-12.097,4.308 -6.712,-0.249 0,-0.249C15.908,-0.249 15.908,24.525 0,24.525M12.097,-2.651C9.777,-6.712 4.557,-9.28 -0.911,-9.28C-12.843,-9.363 -22.205,-1.989 -22.205,12.097C-22.205,26.431 -13.257,33.888 -1.16,33.805C3.396,33.723 9.777,31.402 12.097,26.598L12.094,32.563L22.122,32.563L22.122,-8.285L12.094,-8.285L12.097,-2.651Z" style="fill:rgb(25,41,81);fillRule:nonzero;"/>
        </g>
        <g transform="matrix(8.33333,0,0,8.33333,288.937,61.625)">
            <path d="M0,-41.926C-4.144,-41.926 -8.393,-41.157 -11.541,-36.102L-11.542,-40.848L-21.626,-40.848L-21.626,0L-11.518,0L-11.518,-21.542C-11.518,-29.082 -6.629,-31.9 -1.325,-31.9C0.069,-31.9 1.213,-31.737 2.227,-31.42L5.965,-40.832C4.152,-41.517 2.097,-41.926 0,-41.926" style="fill:rgb(25,41,81);fillRule:nonzero;"/>
        </g>
        <g transform="matrix(8.33333,0,0,8.33333,431.686,-70.2625)">
            <path d="M0,-9.362C1.491,-14.665 5.966,-17.316 11.435,-17.316C17.234,-17.316 21.377,-14.665 22.041,-9.362L0,-9.362ZM11.104,-26.265C-2.154,-26.265 -10.605,-17.316 -10.605,-4.888C-10.605,8.203 -2.236,16.903 11.849,16.903C18.063,16.903 25.105,14.75 29.415,10.274L22.952,3.895C20.632,6.297 15.743,7.707 12.015,7.707C4.889,7.707 0.497,4.061 -0.165,-0.993L31.734,-0.993C33.309,-17.813 24.774,-26.265 11.104,-26.265" style="fill:rgb(25,41,81);fillRule:nonzero;"/>
        </g>
        <g transform="matrix(8.33333,0,0,8.33333,935.576,62.1967)">
            <path d="M0,-41.58C-5.137,-41.58 -9.28,-39.509 -13.423,-35.448L-13.413,-41L-23.117,-41L-23.117,-0.069L-13.16,0L-13.092,-20.949C-13.092,-27.163 -8.866,-32.382 -2.651,-32.382C3.811,-32.382 7.208,-27.66 7.208,-21.445L7.208,-0.069L17.317,-0.069L17.317,-21.529C17.317,-34.372 9.611,-41.58 0,-41.58" style="fill:rgb(25,41,81);fillRule:nonzero;"/>
        </g>
        <g transform="matrix(8.33333,0,0,8.33333,1308.19,-209.732)">
            <path d="M0,24.525C-6.712,24.525 -12.098,19.886 -12.098,12.097C-12.098,4.308 -6.712,-0.249 0,-0.249C15.908,-0.249 15.908,24.525 0,24.525M12.105,-8.285L12.097,-2.651C9.777,-6.712 4.557,-9.28 -0.911,-9.28C-12.843,-9.363 -22.205,-1.989 -22.205,12.097C-22.205,26.431 -13.258,33.888 -1.16,33.805C3.396,33.723 9.777,31.402 12.097,26.598L12.105,32.563L22.123,32.563L22.123,-8.285L12.105,-8.285Z" style="fill:rgb(25,41,81);fillRule:nonzero;"/>
        </g>
        <g transform="matrix(8.33333,0,0,8.33333,-493.167,-204.429)">
            <path d="M0,62.24C-2.383,62.766 -7.255,63.707 -14.477,64.476L-15.843,14.055C-15.88,12.802 -16.888,11.794 -18.139,11.76C-18.16,11.759 -18.182,11.759 -18.203,11.759C-19.476,11.759 -20.527,12.776 -20.562,14.056L-21.945,65.131C-27.034,65.489 -32.428,65.695 -37.983,65.743L-39.343,22.463C-39.385,21.217 -40.393,20.21 -41.636,20.171C-41.661,20.17 -41.688,20.17 -41.712,20.17C-42.316,20.17 -42.889,20.396 -43.332,20.812C-43.793,21.244 -44.058,21.832 -44.077,22.463L-45.436,65.717C-50.896,65.631 -56.227,65.398 -61.29,65.024L-62.686,30.623C-62.738,29.412 -63.726,28.426 -64.933,28.376C-66.232,28.324 -67.318,29.332 -67.371,30.624L-68.739,64.353C-75.483,63.63 -80.247,62.793 -83.122,62.199L-83.122,10.724C-78.055,13.13 -72.088,13.746 -65.833,12.505C-59.013,11.15 -52.902,8.192 -46.993,5.33C-42.817,3.308 -38.873,1.397 -34.706,0.016C-34.315,-0.114 -33.925,-0.238 -33.532,-0.356C-27.378,-2.214 -21.239,-3.195 -15.284,-3.274L-14.483,-3.287C-9.081,-3.37 -3.611,-3.174 -1.304,0.163C-0.392,1.481 0.009,3.223 -0.006,5.811C-0.021,8.543 -0.002,58.517 0,62.24M-67.156,5.842C-72.532,6.91 -77.287,6.298 -81.293,4.025C-82.334,3.435 -83.003,2.569 -83.038,1.766C-83.075,0.942 -82.394,0.292 -81.815,-0.107C-79.07,-2 -75.532,-2.472 -72.118,-2.701C-68.051,-2.973 -63.911,-2.656 -59.882,-1.769C-57.316,-1.204 -54.897,-0.278 -52.82,0.596C-57.269,2.715 -62.03,4.824 -67.156,5.842M6.973,5.844C6.949,4.02 6.839,1.873 6.197,-0.233C5.788,-1.577 5.203,-2.804 4.461,-3.878C0.015,-10.308 -8.776,-10.17 -14.59,-10.079L-15.376,-10.067C-21.965,-9.979 -28.733,-8.9 -35.494,-6.859C-35.945,-6.723 -36.395,-6.581 -36.843,-6.431C-39.219,-5.644 -41.723,-4.639 -44.713,-3.272C-45.455,-3.593 -46.189,-3.918 -46.967,-4.262C-50.538,-5.844 -54.23,-7.48 -58.421,-8.403C-63.094,-9.432 -67.855,-9.793 -72.57,-9.479C-76.745,-9.199 -81.565,-8.532 -85.674,-5.698C-88.123,-4.007 -89.589,-1.612 -89.793,1C-89.876,1.317 -89.915,1.59 -89.915,1.858L-89.915,62.417C-89.915,65.485 -87.732,68.17 -84.727,68.8C-79.355,69.927 -64.304,72.548 -40.589,72.548C-17.444,72.548 -3.31,69.943 1.694,68.822C4.692,68.151 6.787,65.534 6.787,62.461L6.977,7.228C6.979,6.766 6.979,6.304 6.973,5.844" style="fill:rgb(175,175,175);fillRule:nonzero;"/>
        </g>
    </g>
</svg>
