<?xml version="1.0" encoding="utf-8"?>
<!-- Generator: Adobe Illustrator 25.2.3, SVG Export Plug-In . SVG Version: 6.00 Build 0)  -->
<svg version="1.1" id="Layer_1" xmlns:serif="http://www.serif.com/"
	 xmlns="http://www.w3.org/2000/svg" xmlns:xlink="http://www.w3.org/1999/xlink" x="0px" y="0px" viewBox="0 0 612 182"
	 style="enable-background:new 0 0 612 182;" xml:space="preserve">
<style type="text/css">
	.st0{fill:#1A2951;}
</style>
<g>
	<g>
		<path class="st0" d="M280.5,118.2h-7.8L257,153.4h8.8l3.1-6.8h15.3l3.1,6.8h8.9L280.5,118.2z M276.6,128.4c0.1,0.3,0.3,0.6,0.4,1
			c0.2,0.6,0.4,1,0.5,1.2l3.5,8.5h-8.8L276.6,128.4z"/>
		<path class="st0" d="M329.1,118.2v20.7L314,118.2h-7.3v35.2h8.1v-20.7c0,0,0,0,0,0l15.1,20.6h7.3v-35.2H329.1z"/>
		<path class="st0" d="M371.2,118.2h-7.8l-15.7,35.2h8.8l3.1-6.8h15.3l3.1,6.8h8.9L371.2,118.2z M367.2,128.4c0.1,0.3,0.3,0.6,0.4,1
			c0.2,0.6,0.4,1,0.5,1.2l3.5,8.5h-8.8L367.2,128.4z"/>
		<polygon class="st0" points="405.5,145.7 405.5,118.2 397.4,118.2 397.4,153.4 422.6,153.4 422.6,145.7 		"/>
		<path class="st0" d="M450.1,118.2l-7,11.4c-0.4,0.6-0.8,1.2-1.1,1.7c-0.3-0.5-0.6-1-1-1.7l-6.9-11.5h-9.7l13.5,20.9v14.3h8.1V139
			l13.9-20.8H450.1z"/>
		<polygon class="st0" points="466.6,118.2 466.6,125.7 477,125.7 477,153.4 485.2,153.4 485.2,125.7 495.6,125.7 495.6,118.2 		"/>
		<rect x="507.2" y="118.2" class="st0" width="8.1" height="35.2"/>
		<path class="st0" d="M556,142.2l-1.1,1c-1.2,1.1-2.4,1.8-3.7,2.3c-3,1.1-6.9,1-9.6-0.6c-1.6-0.9-2.7-2.1-3.6-3.7
			c-0.9-1.6-1.3-3.4-1.3-5.5c0-2,0.4-3.9,1.3-5.4c0.9-1.6,2-2.7,3.5-3.6c2.6-1.5,6.4-1.7,9.4-0.5c1.3,0.5,2.5,1.3,3.7,2.4l1.1,1
			l4.8-6.2l-0.9-0.9c-1.7-1.6-3.7-2.8-5.8-3.7c-2.1-0.9-4.5-1.3-6.9-1.3c-3.5,0-6.7,0.8-9.5,2.3c-2.8,1.6-5.1,3.8-6.6,6.6
			c-1.6,2.8-2.4,6-2.4,9.5c0,3.5,0.8,6.6,2.3,9.4c1.6,2.8,3.8,4.9,6.6,6.5c2.8,1.5,6,2.3,9.6,2.3c5.3,0,9.7-1.6,13-4.8l0.9-0.9
			L556,142.2z"/>
		<path class="st0" d="M595.2,135.1c-2-1.8-5.1-3-9.5-3.7c-3.1-0.5-4.5-1.1-5.2-1.5c-0.7-0.4-1-0.9-1-1.7c0-0.9,0.4-1.5,1.3-2.1
			c1.9-1.2,5-1.3,7.9-0.4c1.3,0.4,2.4,1,3.4,1.7l1.1,0.9l4.3-6.2l-1.1-0.8c-1.8-1.3-3.7-2.3-5.6-2.9c-4-1.2-9.1-1.2-12.9,0.5
			c-2,0.9-3.6,2.2-4.8,3.8c-1.2,1.7-1.8,3.6-1.8,5.8c0,2.9,1.1,5.3,3.3,7c2.1,1.6,5.1,2.7,9.3,3.3c3.1,0.4,4.5,1.1,5.1,1.6
			c0.8,0.6,1.2,1.3,1.2,2.2c0,1.1-0.5,2-1.4,2.6c-2.1,1.5-6,1.5-9.2,0.3c-1.6-0.6-3.1-1.4-4.4-2.3l-1.2-0.9l-4,6.4l0.9,0.8
			c1.7,1.4,3.7,2.6,6.1,3.4c2.3,0.8,4.8,1.2,7.4,1.2c2.6,0,5-0.4,7.1-1.3c2.2-0.9,3.9-2.3,5-4c1.2-1.8,1.8-3.9,1.8-6.2
			C598.4,139.4,597.3,136.9,595.2,135.1z"/>
	</g>
	<g>
		<path class="st0" d="M305.5,39.3c-3.7-6.4-12-10.5-20.6-10.5C265.9,28.6,251,40.3,251,62.7c0,22.7,14.2,34.6,33.4,34.4
			c7.2-0.1,17.4-3.8,21-11.4l0,9.5h15.9V30.3h-15.9L305.5,39.3z M286.3,82.4c-10.6,0-19.2-7.4-19.2-19.7c0-12.4,8.5-19.6,19.2-19.6
			C311.5,43.1,311.5,82.4,286.3,82.4z"/>
		<path class="st0" d="M367.4,28.6c-6.6,0-13.3,1.2-18.3,9.2l0-7.5h-16v64.8h16V61c0-12,7.8-16.4,16.2-16.4c2.2,0,4,0.3,5.6,0.8
			l5.9-14.9C374,29.3,370.7,28.6,367.4,28.6z"/>
		<path class="st0" d="M412.2,28.4c-21,0-34.4,14.2-34.4,33.9c0,20.8,13.3,34.6,35.6,34.6c9.9,0,21-3.4,27.9-10.5L431,76.2
			c-3.7,3.8-11.4,6-17.4,6c-11.3,0-18.3-5.8-19.3-13.8H445C447.4,41.8,433.9,28.4,412.2,28.4z M394.6,55.2
			c2.4-8.4,9.5-12.6,18.1-12.6c9.2,0,15.8,4.2,16.8,12.6H394.6z"/>
		<path class="st0" d="M490.5,29.3c-8.2,0-14.7,3.3-21.3,9.7l0-8.8h-15.4v64.9l15.8,0.1l0.1-33.2c0-9.9,6.7-18.1,16.6-18.1
			c10.3,0,15.6,7.5,15.6,17.4v33.9h16v-34C518,40.7,505.8,29.3,490.5,29.3z"/>
		<path class="st0" d="M580.7,30.3l0,8.9c-3.7-6.4-12-10.5-20.6-10.5c-18.9-0.1-33.8,11.6-33.8,33.9c0,22.7,14.2,34.6,33.4,34.4
			c7.2-0.1,17.4-3.8,21-11.4l0,9.5h15.9V30.3H580.7z M561.5,82.4c-10.6,0-19.2-7.4-19.2-19.7c0-12.4,8.5-19.6,19.2-19.6
			C586.7,43.1,586.7,82.4,561.5,82.4z"/>
	</g>
	<path class="st0" d="M222.7,70.5c0-0.3,0-0.6,0-0.8c0-0.3,0-0.6,0-0.8c0-0.3,0-0.6,0-0.8c-0.2-4.4-0.9-8.9-2.3-13.3
		c-1.4-4.3-3.4-8.5-6-12.3c-2.6-3.8-5.8-7.1-9.4-9.9c-3.6-2.8-7.5-5.1-11.5-6.9c-4.1-1.8-8.3-3.1-12.6-4c-4.3-0.9-8.7-1.3-13-1.4
		c-4.3-0.1-8.7,0.2-13,0.9c-2.1,0.3-4.3,0.8-6.4,1.3c-1,0.3-2.1,0.5-3.1,0.8c-0.5,0.1-1,0.3-1.5,0.4l-1.5,0.5
		c-8.1,2.6-15.7,6-22.9,9.6c-1.6,0.8-3.1,1.6-4.7,2.3c-1.2-0.7-2.5-1.4-3.7-2c-0.5-0.2-1-0.5-1.4-0.7c-0.5-0.2-1-0.5-1.4-0.7
		l-1.4-0.7l-1.5-0.6l-0.7-0.3l-0.7-0.3c-0.5-0.2-1-0.4-1.5-0.6c-1-0.4-2-0.8-3-1.1c-1-0.4-2-0.7-3-1c-0.5-0.2-1-0.3-1.5-0.5
		c-0.5-0.2-1-0.3-1.5-0.4l-1.5-0.4l-1.5-0.4l-0.8-0.2l-0.8-0.2l-1.5-0.4l-1.5-0.3c-0.3-0.1-0.5-0.1-0.8-0.2l-0.8-0.2
		c-0.5-0.1-1-0.2-1.5-0.3L81,24.3c-2.1-0.3-4.1-0.7-6.2-0.9c-1-0.1-2.1-0.2-3.1-0.3c-0.5,0-1-0.1-1.6-0.1c-0.5,0-1-0.1-1.6-0.1
		l-1.6-0.1l-1.6-0.1l-0.8,0l-0.8,0l-1.6,0c-2.1,0-4.2,0-6.3,0.1c-0.5,0-1.1,0.1-1.6,0.1c-0.5,0-1.1,0.1-1.6,0.1l-1.6,0.1l-1.6,0.2
		c-0.3,0-0.5,0.1-0.8,0.1L48,23.5c-0.5,0.1-1,0.1-1.6,0.2c-1.1,0.1-2.1,0.3-3.2,0.5c-2.1,0.4-4.2,0.8-6.3,1.4
		c-0.5,0.1-1,0.3-1.6,0.4L35,26.1l-0.4,0.1l-0.8,0.2c-1,0.3-2,0.6-3,1c-2,0.7-4.1,1.6-6.2,2.6c-1,0.5-2.1,1.1-3.1,1.7
		c-0.3,0.2-0.5,0.3-0.8,0.5l-0.2,0.1l-0.3,0.2c-0.2,0.1-0.3,0.3-0.5,0.4c-0.7,0.5-1.2,1.1-1.7,1.6c-1,1.1-1.9,2.3-2.6,3.6
		c-0.7,1.3-1.2,2.7-1.6,4.3c-0.2,0.8-0.3,1.7-0.3,2.6c0,0.2,0,0.4,0,0.6c0,0.1,0,0.2,0,0.3l0,97.9c0,2.6,0.9,5.1,2.5,7.1
		c1.6,2,3.9,3.4,6.4,3.9c5.1,1.1,18.4,2.8,36.7,4.3c14.6,1.2,37,2.6,61.2,2.6c23.5,0,44.8-1.4,58.5-2.6c15.1-1.3,28.7-3,34.6-4.3
		c2.5-0.6,4.7-1.9,6.3-3.9c1.6-2,2.5-4.5,2.5-7l0-27.5c0-0.1,0-0.2,0-0.3c0.1-8,0.2-16,0.3-24l0.1-6l0-6l0-6l0-3L222.7,70.5z
		 M25,44.9c0.1-0.3,0.2-0.8,0.5-1.3c0.2-0.5,0.6-0.9,0.9-1.3c0.2-0.2,0.3-0.3,0.4-0.4c0,0,0.1-0.1,0.1-0.1l0,0l0.1-0.1
		c0.2-0.1,0.3-0.2,0.5-0.3c0.7-0.4,1.4-0.8,2.1-1.2c1.5-0.8,3.1-1.4,4.9-2.1c0.9-0.3,1.7-0.6,2.6-0.9l0.7-0.2l0.3-0.1l0.3-0.1
		c0.4-0.1,0.9-0.3,1.3-0.4c1.8-0.5,3.6-0.9,5.4-1.2c0.9-0.2,1.8-0.3,2.8-0.5c0.5-0.1,0.9-0.1,1.4-0.2l0.7-0.1c0.2,0,0.5-0.1,0.7-0.1
		l1.4-0.2l1.4-0.1c0.5,0,0.9-0.1,1.4-0.1c0.5,0,0.9-0.1,1.4-0.1c1.9-0.1,3.8-0.2,5.7-0.2l1.4,0l0.7,0l0.7,0l1.4,0l1.4,0.1
		c0.5,0,0.9,0.1,1.4,0.1c0.5,0,0.9,0.1,1.4,0.1c0.9,0.1,1.9,0.2,2.8,0.3c1.9,0.2,3.8,0.5,5.6,0.8l1.4,0.2c0.5,0.1,0.9,0.2,1.4,0.3
		l0.7,0.1c0.2,0,0.5,0.1,0.7,0.1l1.4,0.3l1.4,0.3l0.7,0.2l0.7,0.2l1.4,0.4l1.4,0.4c4.2,1.2,8.4,2.7,12.4,4.4
		c-1.5,0.8-3.1,1.5-4.6,2.2c-1.8,0.8-3.5,1.6-5.3,2.4c-1.8,0.8-3.5,1.5-5.3,2.1L86,49.3c-0.4,0.2-0.9,0.3-1.3,0.5
		c-0.4,0.2-0.9,0.3-1.3,0.5c-0.4,0.1-0.9,0.3-1.3,0.4c-1.8,0.6-3.6,1.1-5.4,1.5c-3.6,0.9-7.3,1.5-11,1.9c-3.7,0.4-7.4,0.5-11.2,0.4
		c-3.7-0.1-7.4-0.5-11.1-1.2c-3.7-0.7-7.3-1.6-10.8-2.8l-0.7-0.2c-0.1,0-0.1,0-0.1-0.1l-0.1-0.1c-0.1,0-0.2-0.1-0.3-0.1
		c-0.4-0.1-0.7-0.3-1.1-0.4c-0.7-0.3-1.4-0.7-2-1.1c-0.6-0.4-1.2-0.8-1.7-1.2c-0.1-0.1-0.3-0.2-0.4-0.3l-0.2-0.2l-0.1-0.1
		c-0.2-0.2-0.3-0.3-0.4-0.5c-0.2-0.3-0.3-0.6-0.4-0.7c0,0,0-0.1,0-0.1c0,0,0,0,0,0c0,0,0,0,0,0C25,45.2,25,45.1,25,44.9z
		 M211.1,144.5c-3.8,0.9-14.1,2.3-28.1,3.6l-2.8-84.3c-0.1-1.6-1.4-2.9-3-3c-1.7-0.1-3.2,1.3-3.2,3l-2.9,85.3
		c-8.6,0.7-18.1,1.2-28.1,1.6l-2.8-80c-0.1-1.6-1.3-2.9-3-3c-1.7-0.1-3.1,1.3-3.2,3l-2.8,80.3c-3.5,0.1-7.1,0.1-10.6,0.1
		c-5.6,0-11.3-0.1-17-0.2l-2.9-62.9c-0.1-1.5-1.3-2.8-2.9-2.9c-1.7-0.1-3.1,1.2-3.2,2.9l-2.8,62.5c-9.6-0.4-18.9-1-27.4-1.6L61.5,97
		c-0.1-1.5-1.3-2.8-2.9-2.9c-1.7-0.1-3.2,1.2-3.2,2.9l-2.7,50.9c-13.2-1.2-23.3-2.5-27.8-3.5c-0.2,0-0.3-0.2-0.3-0.4l0-84.5
		c0.4,0.2,0.7,0.4,1.1,0.5c0.6,0.3,1.1,0.5,1.7,0.7c0.1,0.1,0.3,0.1,0.4,0.2l0.2,0.1c0.1,0,0.1,0.1,0.2,0.1l0.8,0.3
		c4,1.4,8.2,2.5,12.4,3.3c4.2,0.8,8.5,1.3,12.7,1.4c4.3,0.2,8.6,0,12.8-0.4c4.2-0.4,8.4-1.2,12.6-2.2c2.1-0.5,4.1-1.1,6.1-1.7
		c0.5-0.2,1-0.3,1.5-0.5c0.5-0.2,1-0.3,1.5-0.5c0.5-0.2,1-0.3,1.5-0.5l1.5-0.5c2-0.7,3.9-1.5,5.8-2.3c1.9-0.8,3.8-1.6,5.7-2.5
		c7.5-3.4,14.6-7.2,21.6-10.7c7.1-3.5,14.1-6.6,21.3-8.9l1.3-0.4c0.4-0.1,0.9-0.3,1.4-0.4c0.9-0.3,1.8-0.5,2.7-0.7
		c1.8-0.4,3.6-0.8,5.4-1.1c3.6-0.6,7.3-0.8,10.9-0.8c3.6,0.1,7.3,0.4,10.8,1.2c3.5,0.7,7,1.8,10.2,3.2c3.2,1.4,6.3,3.2,9,5.4
		c2.7,2.1,5.1,4.7,7,7.4c1.9,2.8,3.5,5.9,4.5,9.2c1.1,3.3,1.7,6.7,1.9,10.3c0,0.2,0,0.4,0,0.7c0,0.2,0,0.4,0,0.7c0,0.2,0,0.4,0,0.7
		l0,0.7l0,3l0,6l0,6l0,6c0.1,8,0.1,16,0.3,24c0,0.1,0,0.2,0,0.4l0,27.5C211.4,144.3,211.3,144.4,211.1,144.5z"/>
</g>
</svg>
