<?xml version="1.0" encoding="UTF-8" standalone="no"?>
<!DOCTYPE svg PUBLIC "-//W3C//DTD SVG 1.1//EN" "http://www.w3.org/Graphics/SVG/1.1/DTD/svg11.dtd">
<svg width="100%" height="100%" viewBox="0 0 365 111" version="1.1" xmlns="http://www.w3.org/2000/svg" xmlns:xlink="http://www.w3.org/1999/xlink" xml:space="preserve" xmlns:serif="http://www.serif.com/" style="fill-rule:evenodd;clip-rule:evenodd;stroke-linejoin:round;stroke-miterlimit:2;">
    <g transform="matrix(0.124765,0,0,0.124765,147.649,51.2019)">
        <g>
            <g transform="matrix(8.62253,0,0,8.62253,143.995,282.31)">
                <path d="M0,-8.045C0.069,-7.878 0.147,-7.696 0.233,-7.494C0.347,-7.194 0.44,-6.969 0.495,-6.866L2.413,-2.244L-2.398,-2.244L0,-8.045ZM2.145,-13.6L-2.078,-13.6L-10.614,5.555L-5.807,5.555L-4.142,1.87L4.159,1.87L5.824,5.555L10.683,5.555L2.145,-13.6Z" style="fill:rgb(4,19,64);fill-rule:nonzero;"/>
            </g>
            <g transform="matrix(8.62253,0,0,8.62253,390.386,330.211)">
                <path d="M0,-19.155L0,-7.9L-8.215,-19.155L-12.164,-19.155L-12.164,0L-7.747,0L-7.747,-11.256C-7.741,-11.248 -7.735,-11.241 -7.729,-11.233L0.468,0L4.417,0L4.417,-19.155L0,-19.155Z" style="fill:rgb(4,19,64);fill-rule:nonzero;"/>
            </g>
            <g transform="matrix(8.62253,0,0,8.62253,569.413,282.31)">
                <path d="M0,-8.045C0.069,-7.878 0.147,-7.696 0.233,-7.494C0.347,-7.194 0.44,-6.969 0.495,-6.866L2.413,-2.244L-2.398,-2.244L0,-8.045ZM2.145,-13.6L-2.078,-13.6L-10.615,5.555L-5.807,5.555L-4.142,1.87L4.158,1.87L5.823,5.555L10.683,5.555L2.145,-13.6Z" style="fill:rgb(4,19,64);fill-rule:nonzero;"/>
            </g>
            <g transform="matrix(8.62253,0,0,8.62253,749.003,200.965)">
                <path d="M0,10.823L0,-4.166L-4.417,-4.166L-4.417,14.989L9.312,14.989L9.312,10.823L0,10.823Z" style="fill:rgb(4,19,64);fill-rule:nonzero;"/>
            </g>
            <g transform="matrix(8.62253,0,0,8.62253,958.335,330.211)">
                <path d="M0,-19.155L-3.796,-12.93C-4.015,-12.582 -4.209,-12.269 -4.378,-11.983C-4.528,-12.247 -4.703,-12.55 -4.9,-12.891L-8.677,-19.155L-13.946,-19.155L-6.611,-7.796L-6.611,0L-2.195,0L-2.195,-7.838L5.341,-19.155L0,-19.155Z" style="fill:rgb(4,19,64);fill-rule:nonzero;"/>
            </g>
            <g transform="matrix(8.62253,0,0,8.62253,1035.37,330.211)">
                <path d="M0,-19.155L0,-15.041L5.679,-15.041L5.679,0L10.119,0L10.119,-15.041L15.798,-15.041L15.798,-19.155L0,-19.155Z" style="fill:rgb(4,19,64);fill-rule:nonzero;"/>
            </g>
            <g transform="matrix(8.62253,0,0,8.62253,-6722.5,-1892.52)">
                <rect x="921.852" y="238.627" width="4.417" height="19.155" style="fill:rgb(4,19,64);"/>
            </g>
            <g transform="matrix(8.62253,0,0,8.62253,1455.16,217.641)">
                <path d="M0,6.954L-0.594,7.493C-1.227,8.067 -1.901,8.49 -2.599,8.747C-4.223,9.35 -6.344,9.265 -7.825,8.42C-8.67,7.939 -9.313,7.284 -9.788,6.421C-10.262,5.564 -10.503,4.556 -10.503,3.427C-10.503,2.315 -10.266,1.318 -9.801,0.467C-9.332,-0.386 -8.704,-1.024 -7.878,-1.489C-6.46,-2.288 -4.4,-2.43 -2.769,-1.776C-2.077,-1.497 -1.396,-1.055 -0.746,-0.464L-0.151,0.075L2.481,-3.292L1.977,-3.758C1.032,-4.628 -0.035,-5.301 -1.193,-5.756C-2.36,-6.22 -3.621,-6.454 -4.938,-6.454C-6.856,-6.454 -8.604,-6.028 -10.129,-5.188C-11.666,-4.343 -12.881,-3.143 -13.738,-1.619C-14.589,-0.109 -15.02,1.622 -15.02,3.528C-15.02,5.419 -14.594,7.132 -13.751,8.625C-12.902,10.13 -11.696,11.318 -10.166,12.156C-8.648,12.987 -6.897,13.408 -4.963,13.408C-2.087,13.408 0.302,12.524 2.137,10.779L2.626,10.314L0,6.954Z" style="fill:rgb(4,19,64);fill-rule:nonzero;"/>
            </g>
            <g transform="matrix(8.62253,0,0,8.62253,1638.88,249.281)">
                <path d="M0,-0.585C-1.1,-1.554 -2.787,-2.212 -5.147,-2.592C-6.834,-2.886 -7.622,-3.204 -7.988,-3.421C-8.377,-3.65 -8.543,-3.922 -8.543,-4.331C-8.543,-4.804 -8.332,-5.153 -7.858,-5.461C-6.85,-6.118 -5.124,-6.169 -3.533,-5.686C-2.839,-5.479 -2.209,-5.162 -1.661,-4.748L-1.043,-4.278L1.301,-7.654L0.721,-8.084C-0.253,-8.805 -1.281,-9.331 -2.335,-9.651C-4.521,-10.306 -7.31,-10.324 -9.375,-9.403C-10.477,-8.914 -11.36,-8.216 -12,-7.326C-12.652,-6.419 -12.983,-5.36 -12.983,-4.179C-12.983,-2.58 -12.374,-1.293 -11.174,-0.352C-10.038,0.54 -8.388,1.123 -6.133,1.427C-4.472,1.656 -3.699,2.015 -3.341,2.277C-2.913,2.591 -2.713,2.977 -2.713,3.492C-2.713,4.103 -2.96,4.559 -3.486,4.923C-4.647,5.718 -6.744,5.726 -8.517,5.09C-9.38,4.778 -10.178,4.353 -10.888,3.828L-11.533,3.351L-13.721,6.823L-13.225,7.24C-12.303,8.019 -11.192,8.638 -9.924,9.076C-8.667,9.516 -7.307,9.739 -5.88,9.739C-4.439,9.739 -3.136,9.495 -2.005,9.01C-0.832,8.51 0.092,7.769 0.742,6.813C1.397,5.85 1.729,4.716 1.729,3.442C1.729,1.778 1.147,0.423 0,-0.585" style="fill:rgb(4,19,64);fill-rule:nonzero;"/>
            </g>
            <g transform="matrix(8.62253,0,0,8.62253,189.524,-185.475)">
                <path d="M0,21.171C-5.794,21.171 -10.442,17.166 -10.442,10.442C-10.442,3.719 -5.794,-0.215 0,-0.215C13.733,-0.215 13.733,21.171 0,21.171M10.442,-2.289C8.44,-5.794 3.935,-8.011 -0.786,-8.011C-11.086,-8.083 -19.169,-1.717 -19.169,10.442C-19.169,22.816 -11.444,29.254 -1.001,29.182C2.933,29.111 8.44,27.108 10.442,22.96L10.44,28.11L19.098,28.11L19.098,-7.153L10.44,-7.153L10.442,-2.289Z" style="fill:rgb(4,19,64);fill-rule:nonzero;"/>
            </g>
            <g transform="matrix(8.62253,0,0,8.62253,570.296,56.9018)">
                <path d="M0,-36.193C-3.577,-36.193 -7.245,-35.529 -9.963,-31.165L-9.964,-35.262L-18.669,-35.262L-18.669,0L-9.943,0L-9.943,-18.597C-9.943,-25.105 -5.723,-27.538 -1.145,-27.538C0.06,-27.538 1.047,-27.397 1.921,-27.123L5.148,-35.249C3.584,-35.84 1.81,-36.193 0,-36.193" style="fill:rgb(4,19,64);fill-rule:nonzero;"/>
            </g>
            <g transform="matrix(8.62253,0,0,8.62253,697.798,-60.9)">
                <path d="M0,-8.082C1.287,-12.66 5.15,-14.949 9.871,-14.949C14.878,-14.949 18.454,-12.66 19.026,-8.082L0,-8.082ZM9.585,-22.674C-1.859,-22.674 -9.155,-14.949 -9.155,-4.22C-9.155,7.081 -1.931,14.592 10.229,14.592C15.594,14.592 21.673,12.732 25.393,8.869L19.813,3.362C17.811,5.436 13.59,6.653 10.371,6.653C4.221,6.653 0.43,3.505 -0.143,-0.858L27.395,-0.858C28.754,-15.377 21.387,-22.674 9.585,-22.674" style="fill:rgb(4,19,64);fill-rule:nonzero;"/>
            </g>
            <g transform="matrix(8.62253,0,0,8.62253,1147.88,57.4097)">
                <path d="M0,-35.894C-4.435,-35.894 -8.011,-34.106 -11.588,-30.601L-11.578,-35.393L-19.956,-35.393L-19.956,-0.059L-11.36,0L-11.301,-18.084C-11.301,-23.448 -7.653,-27.954 -2.289,-27.954C3.29,-27.954 6.223,-23.877 6.223,-18.513L6.223,-0.059L14.949,-0.059L14.949,-18.585C14.949,-29.671 8.297,-35.894 0,-35.894" style="fill:rgb(4,19,64);fill-rule:nonzero;"/>
            </g>
            <g transform="matrix(8.62253,0,0,8.62253,1480.71,-185.475)">
                <path d="M0,21.171C-5.794,21.171 -10.442,17.166 -10.442,10.442C-10.442,3.719 -5.794,-0.215 0,-0.215C13.733,-0.215 13.733,21.171 0,21.171M10.45,-7.153L10.442,-2.289C8.44,-5.794 3.934,-8.011 -0.787,-8.011C-11.087,-8.083 -19.169,-1.717 -19.169,10.442C-19.169,22.816 -11.444,29.254 -1.002,29.182C2.933,29.111 8.44,27.108 10.442,22.96L10.45,28.11L19.098,28.11L19.098,-7.153L10.45,-7.153Z" style="fill:rgb(4,19,64);fill-rule:nonzero;"/>
            </g>
            <g transform="matrix(8.62253,0,0,8.62253,-1066.4,-253.825)">
                <path d="M0,5.254L0.313,5.052L0.625,4.86C0.832,4.735 1.043,4.615 1.253,4.494C1.675,4.257 2.101,4.029 2.531,3.811C3.393,3.372 4.27,2.971 5.158,2.592C6.937,1.84 8.765,1.205 10.626,0.667C12.487,0.132 14.386,-0.292 16.307,-0.608L17.028,-0.72L17.753,-0.821C17.994,-0.855 18.236,-0.881 18.479,-0.91C18.721,-0.939 18.963,-0.968 19.206,-0.99C19.691,-1.039 20.179,-1.079 20.666,-1.115C21.154,-1.143 21.643,-1.177 22.132,-1.191C24.088,-1.264 26.056,-1.207 28.014,-1.007C29.971,-0.807 31.918,-0.459 33.822,0.054C33.941,0.087 34.061,0.115 34.179,0.151L34.534,0.256C34.77,0.328 35.007,0.393 35.241,0.471L35.943,0.7C36.177,0.778 36.407,0.868 36.639,0.951L36.985,1.078C37.101,1.121 37.215,1.169 37.329,1.213C37.559,1.304 37.786,1.395 38.013,1.491C38.463,1.692 38.916,1.879 39.356,2.101C39.799,2.312 40.235,2.539 40.666,2.772C40.882,2.887 41.093,3.015 41.305,3.135C41.518,3.256 41.729,3.38 41.935,3.513C42.142,3.644 42.349,3.772 42.553,3.906C42.756,4.042 42.957,4.181 43.157,4.32L43.456,4.53C43.555,4.602 43.651,4.676 43.748,4.75C43.942,4.898 44.135,5.047 44.325,5.198C44.632,5.44 44.684,5.885 44.441,6.191C44.247,6.436 43.924,6.518 43.646,6.417L43.621,6.408C43.4,6.327 43.182,6.246 42.965,6.162L42.641,6.037L42.313,5.92L41.662,5.682C41.442,5.609 41.226,5.532 41.009,5.457C40.793,5.379 40.572,5.314 40.354,5.242C40.136,5.172 39.921,5.096 39.7,5.033C39.48,4.969 39.263,4.902 39.045,4.835C38.828,4.766 38.605,4.712 38.387,4.65C37.949,4.524 37.508,4.415 37.069,4.301C36.625,4.204 36.189,4.084 35.744,3.997C35.302,3.901 34.857,3.816 34.415,3.729C34.194,3.684 33.97,3.651 33.748,3.611C33.525,3.573 33.304,3.535 33.08,3.502C29.516,2.941 25.903,2.773 22.28,2.903C18.656,3.034 15.025,3.452 11.396,4.054C9.579,4.351 7.767,4.707 5.949,5.091C5.494,5.184 5.04,5.285 4.586,5.387C4.131,5.484 3.679,5.594 3.223,5.696C2.769,5.803 2.313,5.909 1.858,6.02L0.503,6.351L0.475,6.358C0.148,6.438 -0.182,6.238 -0.262,5.91C-0.325,5.652 -0.212,5.391 0,5.254" style="fill:rgb(4,19,64);fill-rule:nonzero;"/>
            </g>
            <g transform="matrix(8.62253,0,0,8.62253,-1087.83,-155.462)">
                <path d="M0,-1.137C0.125,-1.065 0.263,-0.987 0.396,-0.914L0.803,-0.69C1.075,-0.542 1.35,-0.397 1.626,-0.256L2.455,0.166L2.873,0.371C3.012,0.44 3.151,0.508 3.292,0.574C3.571,0.708 3.851,0.842 4.134,0.97L4.555,1.166L4.979,1.356C5.26,1.485 5.545,1.606 5.829,1.729C6.111,1.855 6.397,1.974 6.683,2.092L7.11,2.27L7.541,2.442C7.828,2.557 8.113,2.674 8.402,2.782C8.691,2.891 8.978,3.006 9.268,3.11L10.135,3.427C10.717,3.629 11.297,3.834 11.883,4.02C12.465,4.218 13.054,4.389 13.64,4.571C14.818,4.909 15.997,5.236 17.187,5.508C17.482,5.584 17.782,5.643 18.079,5.71C18.378,5.772 18.674,5.844 18.973,5.9C19.571,6.012 20.167,6.136 20.767,6.23C21.066,6.28 21.365,6.333 21.664,6.38L22.564,6.506L23.015,6.569L23.466,6.62L24.366,6.724C24.667,6.757 24.968,6.777 25.269,6.804L25.72,6.843C25.87,6.856 26.021,6.869 26.171,6.875L27.073,6.924C27.224,6.932 27.373,6.943 27.523,6.949L27.975,6.961L28.876,6.984C29.026,6.99 29.176,6.986 29.326,6.985L29.776,6.981L30.227,6.978L30.451,6.976C30.526,6.976 30.601,6.975 30.674,6.97L31.557,6.926L31.997,6.905L32.217,6.894L32.438,6.872L33.317,6.784L33.757,6.741C33.903,6.728 34.049,6.699 34.195,6.68L35.071,6.549C37.403,6.175 39.709,5.573 41.96,4.774L42.801,4.463L43.221,4.308C43.291,4.281 43.361,4.257 43.431,4.229L44.887,3.634C45.025,3.578 45.162,3.514 45.3,3.454L46.124,3.09C46.261,3.028 46.398,2.97 46.535,2.906L46.942,2.711C47.485,2.45 48.031,2.198 48.566,1.915C50.718,0.819 52.819,-0.399 54.883,-1.699L55.271,-1.941L55.667,-2.194L56.467,-2.703L58.079,-3.714C59.16,-4.388 60.258,-5.049 61.374,-5.696C62.489,-6.344 63.629,-6.967 64.791,-7.567C65.955,-8.164 67.146,-8.729 68.365,-9.253C69.586,-9.772 70.836,-10.248 72.115,-10.664C73.395,-11.076 74.703,-11.429 76.035,-11.705C77.366,-11.978 78.72,-12.174 80.083,-12.284C81.446,-12.391 82.817,-12.41 84.182,-12.342C86.907,-12.206 89.6,-11.706 92.171,-10.88C94.742,-10.054 97.186,-8.909 99.445,-7.519C100.576,-6.824 101.662,-6.067 102.699,-5.259C103.217,-4.853 103.724,-4.437 104.22,-4.01C104.468,-3.797 104.707,-3.574 104.951,-3.356C105.193,-3.138 105.429,-2.911 105.666,-2.689C105.901,-2.463 106.129,-2.23 106.36,-2.001C106.589,-1.77 106.813,-1.535 107.037,-1.3C107.258,-1.063 107.475,-0.821 107.692,-0.582C107.909,-0.341 108.119,-0.094 108.33,0.151C109.166,1.137 109.95,2.161 110.666,3.229C110.871,3.537 110.789,3.952 110.481,4.157C110.229,4.326 109.904,4.3 109.682,4.115L109.68,4.113C108.717,3.31 107.756,2.524 106.776,1.772L106.039,1.214C105.79,1.033 105.545,0.849 105.295,0.67C105.044,0.494 104.798,0.312 104.547,0.138C104.294,-0.034 104.044,-0.21 103.79,-0.378C103.535,-0.546 103.285,-0.719 103.029,-0.882C102.771,-1.044 102.519,-1.212 102.259,-1.369C101.745,-1.689 101.228,-2.001 100.703,-2.297C99.655,-2.893 98.591,-3.444 97.512,-3.946C95.353,-4.947 93.129,-5.747 90.864,-6.298C88.603,-6.851 86.298,-7.161 83.999,-7.203C82.852,-7.224 81.706,-7.171 80.566,-7.047C79.427,-6.926 78.294,-6.732 77.169,-6.472C76.044,-6.216 74.929,-5.894 73.823,-5.515C72.717,-5.14 71.621,-4.708 70.534,-4.231C69.446,-3.758 68.368,-3.237 67.297,-2.687C66.223,-2.139 65.159,-1.552 64.095,-0.95C63.03,-0.347 61.971,0.282 60.905,0.917L59.308,1.882L58.506,2.368L58.102,2.612L57.685,2.86C55.465,4.19 53.173,5.426 50.802,6.525C50.215,6.808 49.61,7.062 49.011,7.324L48.561,7.519C48.409,7.583 48.256,7.642 48.104,7.704L47.19,8.069C47.037,8.129 46.887,8.193 46.732,8.249L46.268,8.416L45.339,8.75L45.107,8.833C45.029,8.86 44.95,8.884 44.872,8.91L44.401,9.061L43.46,9.363C40.938,10.138 38.331,10.703 35.685,11.012L34.689,11.116C34.523,11.131 34.359,11.155 34.192,11.163L33.692,11.192L32.692,11.248L32.442,11.261L31.69,11.267L30.688,11.272C30.604,11.273 30.521,11.271 30.439,11.267L29.209,11.217C29.045,11.209 28.881,11.206 28.718,11.191L27.736,11.118L27.246,11.081C27.083,11.066 26.92,11.047 26.757,11.03L25.781,10.921C25.618,10.904 25.457,10.881 25.295,10.857L24.81,10.786C24.486,10.738 24.162,10.696 23.841,10.642L22.876,10.472L22.395,10.384L21.917,10.284L20.961,10.082C20.644,10.009 20.328,9.93 20.012,9.855C19.378,9.711 18.754,9.529 18.128,9.359C17.814,9.273 17.506,9.174 17.195,9.082C16.886,8.987 16.574,8.898 16.268,8.793L15.347,8.485C15.04,8.382 14.737,8.267 14.433,8.159C13.823,7.946 13.225,7.703 12.624,7.469C12.029,7.218 11.432,6.978 10.845,6.712C10.255,6.454 9.675,6.174 9.095,5.899L8.231,5.47C7.944,5.327 7.661,5.173 7.377,5.025C7.092,4.878 6.811,4.723 6.529,4.569L6.108,4.336L5.692,4.096C5.414,3.937 5.137,3.778 4.862,3.612C4.587,3.447 4.313,3.282 4.043,3.111L3.636,2.856L3.231,2.596C2.963,2.423 2.697,2.245 2.432,2.066C1.901,1.709 1.379,1.339 0.866,0.956C0.609,0.765 0.354,0.57 0.103,0.372C-0.024,0.273 -0.15,0.174 -0.274,0.072C-0.4,-0.032 -0.521,-0.132 -0.651,-0.244C-0.884,-0.443 -0.912,-0.793 -0.713,-1.025C-0.536,-1.231 -0.241,-1.277 -0.015,-1.146L0,-1.137Z" style="fill:rgb(4,19,64);fill-rule:nonzero;"/>
            </g>
            <g transform="matrix(8.62253,0,0,8.62253,-1071.25,219.234)">
                <path d="M0,-17.886C0.117,-17.512 0.208,-17.139 0.29,-16.765C0.334,-16.578 0.368,-16.391 0.407,-16.204L0.511,-15.644C0.639,-14.896 0.736,-14.149 0.812,-13.402C0.96,-11.907 1.02,-10.412 1.009,-8.917C0.997,-7.423 0.924,-5.928 0.763,-4.433C0.682,-3.686 0.58,-2.938 0.448,-2.191C0.382,-1.817 0.311,-1.444 0.227,-1.07C0.144,-0.696 0.054,-0.323 -0.062,0.051C-0.198,0.497 -0.671,0.747 -1.116,0.609C-1.392,0.525 -1.594,0.307 -1.675,0.051C-1.789,-0.323 -1.88,-0.696 -1.963,-1.07C-2.047,-1.444 -2.117,-1.817 -2.185,-2.191C-2.315,-2.938 -2.418,-3.686 -2.498,-4.433C-2.659,-5.928 -2.733,-7.423 -2.744,-8.917C-2.755,-10.412 -2.696,-11.907 -2.547,-13.402C-2.473,-14.149 -2.375,-14.896 -2.246,-15.644L-2.144,-16.204C-2.104,-16.391 -2.07,-16.578 -2.026,-16.765C-1.944,-17.139 -1.853,-17.512 -1.736,-17.886C-1.586,-18.365 -1.076,-18.633 -0.597,-18.483C-0.303,-18.391 -0.087,-18.158 0,-17.886" style="fill:rgb(4,19,64);fill-rule:nonzero;"/>
            </g>
            <g transform="matrix(8.62253,0,0,8.62253,-901.832,275.325)">
                <path d="M0,-22.336C0.153,-21.869 0.272,-21.402 0.38,-20.935C0.487,-20.468 0.584,-20 0.667,-19.533C0.834,-18.599 0.959,-17.665 1.056,-16.731C1.246,-14.862 1.315,-12.994 1.294,-11.125C1.274,-9.257 1.171,-7.388 0.961,-5.52C0.854,-4.586 0.724,-3.651 0.552,-2.717C0.466,-2.25 0.374,-1.783 0.266,-1.316C0.158,-0.849 0.042,-0.382 -0.105,0.085C-0.248,0.536 -0.729,0.786 -1.179,0.643C-1.453,0.557 -1.654,0.34 -1.736,0.085C-1.884,-0.382 -2,-0.849 -2.107,-1.316C-2.216,-1.783 -2.308,-2.25 -2.394,-2.717C-2.565,-3.651 -2.696,-4.586 -2.803,-5.52C-3.014,-7.388 -3.116,-9.257 -3.136,-11.125C-3.157,-12.994 -3.088,-14.862 -2.897,-16.731C-2.801,-17.665 -2.676,-18.599 -2.509,-19.533C-2.426,-20 -2.329,-20.468 -2.222,-20.935C-2.114,-21.402 -1.995,-21.869 -1.842,-22.336C-1.675,-22.845 -1.127,-23.122 -0.618,-22.955C-0.316,-22.855 -0.094,-22.616 0,-22.336" style="fill:rgb(4,19,64);fill-rule:nonzero;"/>
            </g>
            <g transform="matrix(8.62253,0,0,8.62253,-712.237,327.101)">
                <path d="M0,-35.067C0.172,-34.335 0.307,-33.603 0.429,-32.872C0.551,-32.14 0.659,-31.408 0.755,-30.676C0.945,-29.213 1.094,-27.749 1.206,-26.285C1.433,-23.358 1.526,-20.431 1.522,-17.504C1.516,-14.576 1.411,-11.649 1.173,-8.722C1.056,-7.258 0.901,-5.795 0.706,-4.331C0.607,-3.599 0.496,-2.867 0.371,-2.136C0.246,-1.404 0.109,-0.672 -0.065,0.06C-0.171,0.503 -0.616,0.776 -1.059,0.67C-1.371,0.596 -1.599,0.352 -1.669,0.06C-1.844,-0.672 -1.98,-1.404 -2.105,-2.136C-2.23,-2.867 -2.342,-3.599 -2.44,-4.331C-2.636,-5.795 -2.79,-7.258 -2.908,-8.722C-3.146,-11.649 -3.25,-14.576 -3.257,-17.504C-3.261,-20.431 -3.167,-23.358 -2.94,-26.285C-2.828,-27.749 -2.68,-29.213 -2.489,-30.676C-2.394,-31.408 -2.285,-32.14 -2.163,-32.872C-2.041,-33.603 -1.906,-34.335 -1.734,-35.067C-1.622,-35.546 -1.143,-35.843 -0.663,-35.731C-0.323,-35.651 -0.075,-35.385 0,-35.067" style="fill:rgb(4,19,64);fill-rule:nonzero;"/>
            </g>
            <g transform="matrix(8.62253,0,0,8.62253,-517.204,325.996)">
                <path d="M0,-44.655C0.188,-43.725 0.336,-42.794 0.471,-41.864C0.607,-40.934 0.722,-40.003 0.83,-39.073C1.042,-37.212 1.206,-35.352 1.332,-33.491C1.587,-29.77 1.695,-26.048 1.699,-22.327C1.701,-18.606 1.593,-14.884 1.34,-11.163C1.214,-9.302 1.049,-7.442 0.837,-5.581C0.779,-5.116 0.728,-4.651 0.667,-4.186C0.604,-3.72 0.546,-3.255 0.475,-2.79C0.339,-1.86 0.19,-0.929 0,0.001C-0.097,0.477 -0.562,0.783 -1.037,0.686C-1.392,0.613 -1.653,0.335 -1.722,0.001C-1.912,-0.929 -2.061,-1.86 -2.196,-2.79C-2.268,-3.255 -2.325,-3.72 -2.388,-4.186C-2.449,-4.651 -2.501,-5.116 -2.558,-5.581C-2.771,-7.442 -2.936,-9.302 -3.061,-11.163C-3.313,-14.884 -3.423,-18.606 -3.421,-22.327C-3.417,-26.048 -3.309,-29.77 -3.054,-33.491C-2.928,-35.352 -2.764,-37.212 -2.552,-39.073C-2.443,-40.003 -2.329,-40.934 -2.192,-41.864C-2.058,-42.794 -1.91,-43.725 -1.722,-44.655C-1.625,-45.131 -1.162,-45.438 -0.687,-45.342C-0.33,-45.269 -0.068,-44.99 0,-44.655" style="fill:rgb(4,19,64);fill-rule:nonzero;"/>
            </g>
            <g transform="matrix(8.62253,0,0,8.62253,-325.925,260.64)">
                <path d="M0,-42.409C0.163,-41.525 0.291,-40.642 0.408,-39.758C0.527,-38.875 0.628,-37.991 0.722,-37.107C0.812,-36.224 0.897,-35.34 0.971,-34.456C1.044,-33.573 1.106,-32.689 1.165,-31.805C1.39,-28.271 1.493,-24.737 1.505,-21.202C1.518,-17.668 1.429,-14.133 1.206,-10.599C1.093,-8.831 0.948,-7.064 0.757,-5.297L0.604,-3.971C0.546,-3.53 0.495,-3.088 0.431,-2.646C0.309,-1.763 0.174,-0.879 0,0.005C-0.096,0.493 -0.568,0.81 -1.056,0.715C-1.425,0.643 -1.697,0.353 -1.766,0.005C-1.938,-0.879 -2.074,-1.763 -2.196,-2.646C-2.261,-3.088 -2.312,-3.53 -2.37,-3.971L-2.522,-5.297C-2.714,-7.064 -2.858,-8.831 -2.972,-10.599C-3.194,-14.133 -3.283,-17.668 -3.271,-21.202C-3.259,-24.737 -3.155,-28.271 -2.93,-31.805C-2.872,-32.689 -2.81,-33.573 -2.736,-34.456C-2.662,-35.34 -2.578,-36.224 -2.487,-37.107C-2.394,-37.991 -2.293,-38.875 -2.174,-39.758C-2.057,-40.642 -1.929,-41.525 -1.766,-42.409C-1.676,-42.897 -1.207,-43.219 -0.72,-43.129C-0.344,-43.06 -0.066,-42.763 0,-42.409" style="fill:rgb(4,19,64);fill-rule:nonzero;"/>
            </g>
            <g transform="matrix(8.62253,0,0,8.62253,-144.716,212.031)">
                <path d="M0,-25.085C0.148,-24.56 0.264,-24.034 0.37,-23.509C0.425,-23.246 0.472,-22.983 0.52,-22.72C0.568,-22.458 0.611,-22.195 0.653,-21.932C0.82,-20.881 0.947,-19.83 1.048,-18.779C1.245,-16.677 1.332,-14.575 1.332,-12.473C1.334,-10.371 1.24,-8.269 1.021,-6.167C0.909,-5.116 0.769,-4.065 0.582,-3.014C0.491,-2.488 0.384,-1.963 0.267,-1.437C0.149,-0.912 0.02,-0.386 -0.146,0.139C-0.275,0.548 -0.712,0.775 -1.121,0.646C-1.37,0.567 -1.553,0.37 -1.627,0.139C-1.793,-0.386 -1.923,-0.912 -2.041,-1.437C-2.158,-1.963 -2.266,-2.488 -2.356,-3.014C-2.543,-4.065 -2.683,-5.116 -2.795,-6.167C-3.015,-8.269 -3.108,-10.371 -3.106,-12.473C-3.106,-14.575 -3.02,-16.677 -2.821,-18.779C-2.721,-19.83 -2.594,-20.881 -2.427,-21.932C-2.386,-22.195 -2.343,-22.458 -2.294,-22.72C-2.246,-22.983 -2.199,-23.246 -2.145,-23.509C-2.038,-24.034 -1.922,-24.56 -1.773,-25.085C-1.636,-25.575 -1.126,-25.86 -0.637,-25.721C-0.317,-25.631 -0.085,-25.382 0,-25.085" style="fill:rgb(4,19,64);fill-rule:nonzero;"/>
            </g>
        </g>
    </g>
</svg>
