<?xml version="1.0" encoding="utf-8"?>
<!-- Generator: Adobe Illustrator 25.2.3, SVG Export Plug-In . SVG Version: 6.00 Build 0)  -->
<svg version="1.1" id="Layer_1" xmlns:serif="http://www.serif.com/"
	 xmlns="http://www.w3.org/2000/svg" xmlns:xlink="http://www.w3.org/1999/xlink" x="0px" y="0px" viewBox="0 0 612 182"
	 style="enable-background:new 0 0 612 182;" xml:space="preserve">
<style type="text/css">
	.st0{fill:#242E50;}
</style>
<g transform="matrix(0.124765,0,0,0.124765,159.73,48.5755)">
	<g transform="matrix(8.33333,0,0,8.33333,-188.325,313.985)">
		<path class="st0" d="M88.7,39.6c0.1,0.3,0.3,0.7,0.5,1.1c0.2,0.6,0.4,1,0.5,1.2l3.7,9H84L88.7,39.6z M92.8,28.8h-8.2L68.1,66h9.3
			l3.2-7.2h16.1l3.2,7.2h9.4L92.8,28.8z"/>
	</g>
	<g transform="matrix(8.33333,0,0,8.33333,87.5208,367.605)">
		<path class="st0" d="M111.1,22.3v21.9l-16-21.9h-7.7v37.2H96V37.7l0,0l16,21.8h7.7V22.3H111.1z"/>
	</g>
	<g transform="matrix(8.33333,0,0,8.33333,287.952,313.985)">
		<path class="st0" d="M127.3,39.6c0.1,0.3,0.3,0.7,0.5,1.1c0.2,0.6,0.4,1,0.5,1.2l3.7,9h-9.3L127.3,39.6z M131.5,28.8h-8.2
			L106.7,66h9.3l3.2-7.2h16.1l3.2,7.2h9.4L131.5,28.8z"/>
	</g>
	<g transform="matrix(8.33333,0,0,8.33333,489.011,222.913)">
		<path class="st0" d="M143.7,68.8V39.7h-8.6v37.2h26.7v-8.1H143.7z"/>
	</g>
	<g transform="matrix(8.33333,0,0,8.33333,723.369,367.605)">
		<path class="st0" d="M162.7,22.3l-7.4,12.1c-0.4,0.7-0.8,1.3-1.1,1.8c-0.3-0.5-0.6-1.1-1-1.8l-7.3-12.2h-10.2l14.2,22.1v15.1h8.6
			V44.3l14.6-22C173.1,22.3,162.7,22.3,162.7,22.3z"/>
	</g>
	<g transform="matrix(8.33333,0,0,8.33333,809.607,367.605)">
		<path class="st0" d="M169.7,22.3v8h11v29.2h8.6V30.3h11v-8H169.7z"/>
	</g>
	<g transform="matrix(8.33333,0,0,8.33333,-7469.73,-4331.72)">
		<rect x="1206.2" y="586.3" class="st0" width="8.6" height="37.2"/>
	</g>
	<g transform="matrix(8.33333,0,0,8.33333,1279.59,241.585)">
		<path class="st0" d="M207.9,62.8l-1.2,1c-1.2,1.1-2.5,1.9-3.9,2.4c-3.2,1.2-7.3,1-10.1-0.6c-1.6-0.9-2.9-2.2-3.8-3.9
			c-0.9-1.7-1.4-3.6-1.4-5.8s0.5-4.1,1.4-5.8s2.1-2.9,3.7-3.8c2.8-1.6,6.8-1.8,9.9-0.6c1.3,0.5,2.7,1.4,3.9,2.5l1.2,1l5.1-6.5
			l-1-0.9c-1.8-1.7-3.9-3-6.2-3.9c-2.3-0.9-4.7-1.4-7.3-1.4c-3.7,0-7.1,0.8-10.1,2.5c-3,1.6-5.3,4-7,6.9s-2.5,6.3-2.5,10
			s0.8,7,2.5,9.9c1.6,2.9,4,5.2,7,6.9c2.9,1.6,6.3,2.4,10.1,2.4c5.6,0,10.2-1.7,13.8-5.1l1-0.9L207.9,62.8z"/>
	</g>
	<g transform="matrix(8.33333,0,0,8.33333,1485.28,277.004)">
		<path class="st0" d="M224.6,51c-2.1-1.9-5.4-3.2-10-3.9c-3.3-0.6-4.8-1.2-5.5-1.6c-0.8-0.4-1.1-1-1.1-1.8c0-0.9,0.4-1.6,1.3-2.2
			c2-1.3,5.3-1.4,8.4-0.4c1.3,0.4,2.6,1,3.6,1.8l1.2,0.9l4.6-6.6l-1.1-0.8c-1.9-1.4-3.9-2.4-5.9-3c-4.2-1.3-9.7-1.3-13.7,0.5
			c-2.1,0.9-3.9,2.3-5.1,4c-1.3,1.8-1.9,3.8-1.9,6.1c0,3.1,1.2,5.6,3.5,7.4c2.2,1.7,5.4,2.9,9.8,3.5c3.2,0.4,4.7,1.1,5.4,1.6
			c0.8,0.6,1.2,1.4,1.2,2.4c0,1.2-0.5,2.1-1.5,2.8c-2.3,1.5-6.3,1.6-9.8,0.3c-1.7-0.6-3.2-1.4-4.6-2.4l-1.3-0.9l-4.2,6.7l1,0.8
			c1.8,1.5,3.9,2.7,6.4,3.6c2.4,0.9,5.1,1.3,7.9,1.3c2.8,0,5.3-0.5,7.5-1.4c2.3-1,4.1-2.4,5.3-4.3c1.3-1.9,1.9-4.1,1.9-6.5
			C227.9,55.6,226.8,53,224.6,51"/>
	</g>
	<g transform="matrix(8.33333,0,0,8.33333,1581.1,338.647)">
		<path class="st0" d="M232.4,56.5c0.2-0.2,0.3-0.5,0.3-0.8c0-0.4-0.1-0.6-0.3-0.9c-0.2-0.2-0.6-0.3-1-0.3h-1.7v2.3h1.7
			C231.8,56.8,232.1,56.7,232.4,56.5 M233.5,57c-0.3,0.4-0.6,0.7-1.1,0.8l1.6,2.4h-1.5l-1.4-2.2h-1.5v2.2h-1.2v-6.9h3
			c0.7,0,1.4,0.2,1.8,0.7c0.5,0.5,0.7,1,0.7,1.7C234,56.2,233.8,56.6,233.5,57 M234.8,60.6c1-0.9,1.4-2.2,1.4-3.7
			c0-1.6-0.5-2.9-1.4-3.8c-1-0.9-2.2-1.4-3.8-1.4s-2.8,0.5-3.8,1.4c-1,1-1.4,2.2-1.4,3.8s0.5,2.8,1.4,3.7c1,0.9,2.2,1.4,3.8,1.4
			C232.5,62,233.8,61.5,234.8,60.6 M235.8,52.1c1.2,1.2,1.9,2.8,1.9,4.8s-0.6,3.5-1.9,4.8c-1.2,1.2-2.9,1.8-4.8,1.8
			c-2,0-3.6-0.6-4.8-1.8s-1.8-2.8-1.8-4.8s0.6-3.6,1.8-4.8s2.8-1.8,4.8-1.8C232.9,50.2,234.5,50.8,235.8,52.1"/>
	</g>
	<g transform="matrix(8.33333,0,0,8.33333,-137.348,-209.732)">
		<path class="st0" d="M92.8,53.8C81.5,53.8,72.5,46,72.5,33s9.1-20.8,20.3-20.8C119.5,12.2,119.5,53.8,92.8,53.8 M113.1,8.2
			c-3.9-6.8-12.6-11.1-21.8-11.1C71.3-3,55.6,9.3,55.6,32.9c0,24,15,36.5,35.3,36.4c7.6-0.1,18.3-4,22.2-12.1v10h16.8V-1.2h-16.8
			L113.1,8.2z"/>
	</g>
	<g transform="matrix(8.33333,0,0,8.33333,288.937,61.625)">
		<path class="st0" d="M127.4-35.6c-6.9,0-14.1,1.3-19.4,9.8v-8H91.2v68.5h16.9V-1.4c0-12.6,8.2-17.4,17.1-17.4c2.3,0,4.3,0.3,6,0.8
			l6.3-15.8C134.4-34.9,130.9-35.6,127.4-35.6"/>
	</g>
	<g transform="matrix(8.33333,0,0,8.33333,431.686,-70.2625)">
		<path class="st0" d="M139,8.3C141.5-0.6,149-5,158.2-5c9.7,0,16.7,4.4,17.8,13.3C176,8.3,139,8.3,139,8.3z M157.6-20.1
			c-22.2,0-36.4,15-36.4,35.8c0,21.9,14,36.5,37.6,36.5c10.4,0,22.2-3.6,29.5-11.1l-10.8-10.7c-3.9,4-12.1,6.4-18.3,6.4
			c-11.9,0-19.3-6.1-20.4-14.6h53.5C194.9-5.9,180.6-20.1,157.6-20.1"/>
	</g>
	<g transform="matrix(8.33333,0,0,8.33333,935.576,62.1967)">
		<path class="st0" d="M179.9-35c-8.6,0-15.6,3.5-22.5,10.3V-34h-16.3v68.6l16.7,0.1L158-0.4c0-10.4,7.1-19.2,17.5-19.2
			c10.8,0,16.5,7.9,16.5,18.3v35.8h17v-36C209-22.9,196.1-35,179.9-35"/>
	</g>
	<g transform="matrix(8.33333,0,0,8.33333,1308.19,-209.732)">
		<path class="st0" d="M210.2,53.8c-11.3,0-20.3-7.8-20.3-20.8s9-20.8,20.3-20.8C236.9,12.2,236.9,53.8,210.2,53.8 M230.5-1.2v9.4
			c-3.9-6.8-12.6-11.1-21.8-11.1C188.7-3,173,9.3,173,32.9c0,24,15,36.5,35.3,36.4c7.6-0.1,18.3-4,22.2-12.1v10h16.8V-1.2H230.5z"/>
	</g>
	<g transform="matrix(8.33333,0,0,8.33333,-493.167,-204.429)">
		<path class="st0" d="M63.9,117.4c-4,0.9-12.2,2.5-24.3,3.7l-2.3-84.5c-0.1-2.1-1.8-3.8-3.8-3.8h-0.1c-2.1,0-3.9,1.7-4,3.9
			l-2.3,85.6c-8.5,0.6-17.6,0.9-26.9,1l-2.3-72.6c-0.1-2.1-1.8-3.8-3.8-3.8H-6c-1,0-2,0.4-2.7,1.1c-0.8,0.7-1.2,1.7-1.2,2.8
			l-2.3,72.5c-9.2-0.1-18.1-0.5-26.6-1.2l-2.3-57.7c-0.1-2-1.7-3.7-3.8-3.8c-2.2-0.1-4,1.6-4.1,3.8l-2.3,56.6
			c-11.3-1.2-19.3-2.6-24.1-3.6V31.1c8.5,4,18.5,5.1,29,3c11.4-2.3,21.7-7.2,31.6-12c7-3.4,13.6-6.6,20.6-8.9c0.7-0.2,1.3-0.4,2-0.6
			c10.2-3.2,20.5-4.9,30.5-5h1.3c9.1-0.1,18.2,0.2,22.1,5.8c1.5,2.2,2.2,5.1,2.2,9.5C63.9,27.4,63.9,111.2,63.9,117.4 M-48.7,22.9
			c-9,1.8-17,0.8-23.7-3c-1.7-1-2.9-2.4-2.9-3.8c-0.1-1.4,1.1-2.5,2.1-3.1c4.6-3.2,10.5-4,16.3-4.3c6.8-0.5,13.8,0.1,20.5,1.6
			c4.3,0.9,8.4,2.5,11.8,4C-32.1,17.6-40.1,21.2-48.7,22.9 M75.6,22.9c0-3.1-0.2-6.7-1.3-10.2c-0.7-2.3-1.7-4.3-2.9-6.1
			C63.9-4.2,49.2-4,39.5-3.8h-1.3c-11,0.1-22.4,2-33.7,5.4C3.6,1.8,2.9,2.1,2.1,2.3c-4,1.3-8.2,3-13.2,5.3c-1.2-0.5-2.5-1.1-3.8-1.7
			C-20.8,3.3-27,0.5-34-1c-7.8-1.7-15.8-2.3-23.7-1.8c-7,0.5-15.1,1.6-22,6.3c-4.1,2.8-6.6,6.9-6.9,11.2c-0.1,0.5-0.2,1-0.2,1.4
			v101.5c0,5.1,3.7,9.6,8.7,10.7c9,1.9,34.2,6.3,74,6.3c38.8,0,62.5-4.4,70.9-6.2c5-1.1,8.5-5.5,8.5-10.7l0.3-92.5
			C75.6,24.4,75.6,23.7,75.6,22.9"/>
	</g>
</g>
</svg>
